<?xml version="1.0" encoding="utf-8"?>
<!-- Generator: Adobe Illustrator 16.0.0, SVG Export Plug-In . SVG Version: 6.00 Build 0)  -->
<!DOCTYPE svg PUBLIC "-//W3C//DTD SVG 1.1//EN" "http://www.w3.org/Graphics/SVG/1.1/DTD/svg11.dtd">
<svg version="1.1" id="Layer_1" xmlns="http://www.w3.org/2000/svg" xmlns:xlink="http://www.w3.org/1999/xlink" x="0px" y="0px"
	 width="188px" height="108px" viewBox="34.5 14.5 188 108" enable-background="new 34.5 14.5 188 108" xml:space="preserve">
<g>
	<g>
		<g>
			<path fill="#FFFFFF" d="M73.472,107.098h-4.311c0,0.354,0.054,0.662,0.163,0.926c0.108,0.264,0.257,0.479,0.445,0.646
				c0.182,0.164,0.397,0.289,0.647,0.371c0.249,0.082,0.524,0.125,0.825,0.125c0.398,0,0.799-0.078,1.203-0.234
				c0.403-0.156,0.69-0.311,0.862-0.463h0.052v1.059c-0.332,0.137-0.67,0.252-1.017,0.346c-0.346,0.092-0.709,0.139-1.09,0.139
				c-0.971,0-1.729-0.258-2.273-0.775c-0.545-0.518-0.817-1.252-0.817-2.203c0-0.943,0.261-1.691,0.783-2.244
				c0.522-0.555,1.209-0.83,2.062-0.83c0.79,0,1.398,0.227,1.826,0.682c0.428,0.453,0.642,1.098,0.642,1.934V107.098z
				 M72.513,106.355c-0.003-0.508-0.133-0.902-0.39-1.18c-0.257-0.279-0.647-0.418-1.171-0.418c-0.528,0-0.948,0.152-1.26,0.459
				c-0.313,0.305-0.49,0.686-0.532,1.139H72.513z"/>
			<path fill="#FFFFFF" d="M84.308,109.877h-0.985v-3.279c0-0.248-0.011-0.486-0.033-0.717c-0.023-0.23-0.071-0.414-0.145-0.551
				c-0.08-0.148-0.195-0.262-0.345-0.336c-0.15-0.076-0.367-0.113-0.649-0.113c-0.276,0-0.552,0.066-0.828,0.203
				s-0.552,0.309-0.828,0.52c0.011,0.078,0.019,0.17,0.026,0.275c0.006,0.104,0.01,0.209,0.01,0.313v3.686h-0.984v-3.279
				c0-0.256-0.011-0.496-0.034-0.725c-0.022-0.229-0.07-0.412-0.144-0.549c-0.081-0.148-0.196-0.26-0.346-0.332
				c-0.15-0.074-0.367-0.111-0.65-0.111c-0.269,0-0.539,0.064-0.809,0.195c-0.271,0.131-0.541,0.297-0.81,0.5v4.301h-0.985v-5.76
				h0.985v0.641c0.308-0.252,0.614-0.447,0.919-0.588c0.306-0.143,0.632-0.213,0.977-0.213c0.398,0,0.735,0.084,1.013,0.248
				c0.277,0.166,0.485,0.393,0.621,0.686c0.398-0.33,0.762-0.568,1.09-0.713c0.329-0.148,0.679-0.221,1.053-0.221
				c0.642,0,1.116,0.191,1.422,0.576c0.306,0.383,0.458,0.918,0.458,1.605v3.738H84.308z"/>
			<path fill="#FFFFFF" d="M92.158,106.928c0,0.467-0.068,0.895-0.205,1.281c-0.136,0.385-0.329,0.713-0.576,0.98
				c-0.23,0.256-0.502,0.451-0.814,0.592c-0.312,0.139-0.644,0.209-0.992,0.209c-0.304,0-0.579-0.033-0.825-0.1
				c-0.246-0.064-0.497-0.166-0.752-0.303V112h-0.985v-7.883h0.985v0.604c0.262-0.217,0.557-0.398,0.882-0.543
				c0.327-0.148,0.675-0.221,1.045-0.221c0.706,0,1.255,0.262,1.647,0.787C91.962,105.268,92.158,105.996,92.158,106.928z
				 M91.142,106.953c0-0.693-0.121-1.213-0.362-1.557s-0.611-0.516-1.111-0.516c-0.283,0-0.567,0.061-0.854,0.18
				c-0.286,0.121-0.56,0.279-0.822,0.475v3.264c0.279,0.123,0.52,0.209,0.72,0.252c0.201,0.045,0.429,0.068,0.684,0.068
				c0.548,0,0.976-0.182,1.283-0.547C90.989,108.207,91.142,107.668,91.142,106.953z"/>
			<path fill="#FFFFFF" d="M99.485,107c0,0.939-0.245,1.678-0.734,2.221s-1.144,0.814-1.964,0.814c-0.828,0-1.485-0.271-1.972-0.814
				c-0.487-0.543-0.73-1.281-0.73-2.221c0-0.938,0.244-1.682,0.73-2.225c0.487-0.545,1.145-0.818,1.972-0.818
				c0.82,0,1.475,0.273,1.964,0.818C99.24,105.318,99.485,106.063,99.485,107z M98.469,107c0-0.746-0.148-1.301-0.445-1.664
				s-0.709-0.543-1.236-0.543c-0.535,0-0.949,0.18-1.244,0.543c-0.295,0.363-0.442,0.918-0.442,1.664
				c0,0.723,0.148,1.27,0.444,1.641c0.297,0.373,0.711,0.561,1.242,0.561c0.523,0,0.936-0.186,1.233-0.555
				C98.319,108.277,98.469,107.729,98.469,107z"/>
			<path fill="#FFFFFF" d="M109.174,104.117l-1.524,5.76h-0.912l-1.503-4.439l-1.493,4.439h-0.906l-1.54-5.76h1.027l1.074,4.459
				l1.461-4.459h0.812l1.498,4.459l1.016-4.459H109.174z"/>
			<path fill="#FFFFFF" d="M116.296,107.098h-4.311c0,0.354,0.054,0.662,0.163,0.926s0.256,0.479,0.445,0.646
				c0.181,0.164,0.397,0.289,0.646,0.371c0.25,0.082,0.525,0.125,0.825,0.125c0.398,0,0.798-0.078,1.203-0.234
				c0.403-0.156,0.69-0.311,0.862-0.463h0.052v1.059c-0.332,0.137-0.671,0.252-1.017,0.346c-0.346,0.092-0.708,0.139-1.089,0.139
				c-0.971,0-1.729-0.258-2.274-0.775c-0.545-0.518-0.817-1.252-0.817-2.203c0-0.943,0.261-1.691,0.783-2.244
				c0.522-0.555,1.209-0.83,2.062-0.83c0.789,0,1.398,0.227,1.826,0.682c0.428,0.453,0.641,1.098,0.641,1.934V107.098z
				 M115.338,106.355c-0.004-0.508-0.134-0.902-0.391-1.18c-0.256-0.279-0.646-0.418-1.17-0.418c-0.527,0-0.948,0.152-1.26,0.459
				c-0.313,0.305-0.49,0.686-0.532,1.139H115.338z"/>
			<path fill="#FFFFFF" d="M122.245,105.176h-0.052c-0.147-0.035-0.289-0.061-0.427-0.076c-0.138-0.014-0.302-0.021-0.49-0.021
				c-0.304,0-0.598,0.064-0.88,0.197c-0.283,0.133-0.555,0.303-0.817,0.514v4.088h-0.985v-5.76h0.985v0.852
				c0.391-0.309,0.736-0.529,1.035-0.658c0.298-0.129,0.603-0.193,0.914-0.193c0.171,0,0.295,0.004,0.372,0.014
				c0.077,0.008,0.192,0.023,0.346,0.049L122.245,105.176L122.245,105.176z"/>
			<path fill="#FFFFFF" d="M133.451,107.098h-4.311c0,0.354,0.054,0.662,0.162,0.926c0.107,0.264,0.257,0.479,0.445,0.646
				c0.182,0.164,0.397,0.289,0.646,0.371c0.25,0.082,0.525,0.125,0.825,0.125c0.398,0,0.799-0.078,1.201-0.234
				c0.403-0.156,0.691-0.311,0.863-0.463h0.052v1.059c-0.332,0.137-0.671,0.252-1.017,0.346c-0.346,0.092-0.709,0.139-1.089,0.139
				c-0.971,0-1.729-0.258-2.273-0.775c-0.545-0.518-0.817-1.252-0.817-2.203c0-0.943,0.261-1.691,0.784-2.244
				c0.522-0.555,1.209-0.83,2.062-0.83c0.788,0,1.396,0.227,1.825,0.682c0.428,0.453,0.642,1.098,0.642,1.934L133.451,107.098
				L133.451,107.098z M132.492,106.355c-0.003-0.508-0.133-0.902-0.39-1.18c-0.258-0.279-0.646-0.418-1.171-0.418
				c-0.527,0-0.948,0.152-1.26,0.459c-0.313,0.305-0.489,0.686-0.531,1.139H132.492z"/>
			<path fill="#FFFFFF" d="M144.287,109.877h-0.984v-3.279c0-0.248-0.012-0.486-0.034-0.717c-0.023-0.23-0.07-0.414-0.145-0.551
				c-0.079-0.148-0.195-0.262-0.345-0.336c-0.15-0.076-0.367-0.113-0.65-0.113c-0.275,0-0.552,0.066-0.827,0.203
				c-0.276,0.137-0.552,0.309-0.828,0.52c0.012,0.078,0.02,0.17,0.026,0.275c0.008,0.104,0.011,0.209,0.011,0.313v3.686h-0.984
				v-3.279c0-0.256-0.012-0.496-0.034-0.725s-0.07-0.412-0.145-0.549c-0.08-0.148-0.196-0.26-0.345-0.332
				c-0.15-0.074-0.367-0.111-0.649-0.111c-0.27,0-0.539,0.064-0.811,0.195c-0.271,0.131-0.54,0.297-0.81,0.5v4.301h-0.985v-5.76
				h0.985v0.641c0.308-0.252,0.614-0.447,0.92-0.588c0.306-0.143,0.631-0.213,0.978-0.213c0.397,0,0.734,0.084,1.013,0.248
				c0.277,0.166,0.485,0.393,0.62,0.686c0.398-0.33,0.762-0.568,1.09-0.713c0.328-0.148,0.679-0.221,1.053-0.221
				c0.644,0,1.116,0.191,1.423,0.576c0.306,0.383,0.457,0.918,0.457,1.605L144.287,109.877L144.287,109.877z"/>
			<path fill="#FFFFFF" d="M152.138,106.953c0,0.48-0.069,0.914-0.207,1.301c-0.138,0.383-0.324,0.707-0.559,0.967
				c-0.248,0.273-0.521,0.477-0.816,0.611c-0.297,0.137-0.624,0.205-0.979,0.205c-0.331,0-0.621-0.039-0.869-0.117
				c-0.248-0.076-0.493-0.18-0.733-0.313l-0.063,0.27h-0.922v-8.023h0.984v2.869c0.275-0.227,0.568-0.408,0.879-0.551
				c0.312-0.143,0.66-0.213,1.049-0.213c0.691,0,1.237,0.26,1.637,0.783C151.938,105.264,152.138,106.002,152.138,106.953z
				 M151.122,106.98c0-0.689-0.116-1.211-0.346-1.566c-0.23-0.355-0.604-0.533-1.116-0.533c-0.286,0-0.576,0.061-0.869,0.182
				c-0.293,0.123-0.565,0.279-0.817,0.473v3.299c0.28,0.125,0.52,0.209,0.721,0.258s0.429,0.072,0.684,0.072
				c0.544,0,0.972-0.176,1.28-0.529C150.967,108.283,151.122,107.732,151.122,106.98z"/>
			<path fill="#FFFFFF" d="M159.376,107.098h-4.312c0,0.354,0.054,0.662,0.162,0.926c0.107,0.264,0.257,0.479,0.445,0.646
				c0.182,0.164,0.397,0.289,0.647,0.371c0.249,0.082,0.524,0.125,0.825,0.125c0.397,0,0.798-0.078,1.201-0.234
				c0.402-0.156,0.69-0.311,0.862-0.463h0.052v1.059c-0.331,0.137-0.671,0.252-1.016,0.346c-0.346,0.092-0.709,0.139-1.09,0.139
				c-0.971,0-1.729-0.258-2.273-0.775c-0.544-0.518-0.817-1.252-0.817-2.203c0-0.943,0.262-1.691,0.784-2.244
				c0.522-0.555,1.209-0.83,2.062-0.83c0.789,0,1.397,0.227,1.826,0.682c0.428,0.453,0.642,1.098,0.642,1.934L159.376,107.098
				L159.376,107.098z M158.417,106.355c-0.004-0.508-0.133-0.902-0.391-1.18c-0.257-0.279-0.646-0.418-1.171-0.418
				c-0.527,0-0.947,0.152-1.26,0.459c-0.313,0.305-0.489,0.686-0.531,1.139H158.417z"/>
			<path fill="#FFFFFF" d="M166.419,109.877h-0.984v-0.604c-0.282,0.24-0.578,0.428-0.886,0.563
				c-0.307,0.133-0.641,0.201-1.001,0.201c-0.699,0-1.253-0.264-1.663-0.795c-0.41-0.527-0.615-1.262-0.615-2.199
				c0-0.488,0.069-0.924,0.211-1.305c0.142-0.383,0.333-0.707,0.574-0.977c0.236-0.26,0.514-0.461,0.83-0.598
				c0.316-0.139,0.644-0.207,0.982-0.207c0.307,0,0.58,0.031,0.816,0.096c0.237,0.064,0.487,0.162,0.749,0.297v-2.496h0.985
				L166.419,109.877L166.419,109.877z M165.435,108.459v-3.305c-0.266-0.117-0.503-0.199-0.713-0.242
				c-0.209-0.045-0.438-0.066-0.687-0.066c-0.552,0-0.98,0.188-1.287,0.566c-0.309,0.377-0.462,0.914-0.462,1.609
				c0,0.682,0.119,1.203,0.356,1.557c0.236,0.355,0.619,0.535,1.142,0.535c0.279,0,0.563-0.061,0.849-0.184
				C164.92,108.809,165.187,108.652,165.435,108.459z"/>
			<path fill="#FFFFFF" d="M173.908,109.877h-0.984v-0.604c-0.284,0.24-0.579,0.428-0.886,0.563c-0.308,0.133-0.641,0.201-1,0.201
				c-0.699,0-1.253-0.264-1.664-0.795c-0.41-0.527-0.616-1.262-0.616-2.199c0-0.488,0.07-0.924,0.212-1.305
				c0.142-0.383,0.333-0.707,0.574-0.977c0.237-0.26,0.513-0.461,0.83-0.598c0.315-0.139,0.644-0.207,0.982-0.207
				c0.307,0,0.578,0.031,0.816,0.096c0.237,0.064,0.487,0.162,0.75,0.297v-2.496h0.983v8.023H173.908z M172.924,108.459v-3.305
				c-0.265-0.117-0.504-0.199-0.713-0.242c-0.209-0.045-0.438-0.066-0.686-0.066c-0.552,0-0.982,0.188-1.289,0.566
				c-0.308,0.377-0.461,0.914-0.461,1.609c0,0.682,0.118,1.203,0.356,1.557c0.237,0.355,0.618,0.535,1.142,0.535
				c0.278,0,0.563-0.061,0.849-0.184C172.408,108.809,172.675,108.652,172.924,108.459z"/>
			<path fill="#FFFFFF" d="M181.549,107.098h-4.311c0,0.354,0.054,0.662,0.162,0.926c0.107,0.264,0.257,0.479,0.445,0.646
				c0.182,0.164,0.397,0.289,0.646,0.371c0.25,0.082,0.524,0.125,0.825,0.125c0.398,0,0.799-0.078,1.203-0.234
				c0.401-0.156,0.689-0.311,0.86-0.463h0.053v1.059c-0.331,0.137-0.67,0.252-1.016,0.346c-0.347,0.092-0.709,0.139-1.09,0.139
				c-0.971,0-1.729-0.258-2.273-0.775s-0.816-1.252-0.816-2.203c0-0.943,0.262-1.691,0.783-2.244c0.522-0.555,1.209-0.83,2.062-0.83
				c0.789,0,1.397,0.227,1.826,0.682c0.427,0.453,0.641,1.098,0.641,1.934L181.549,107.098L181.549,107.098z M180.591,106.355
				c-0.004-0.508-0.134-0.902-0.391-1.18c-0.256-0.279-0.646-0.418-1.17-0.418c-0.528,0-0.948,0.152-1.261,0.459
				c-0.313,0.305-0.489,0.686-0.531,1.139H180.591z"/>
			<path fill="#FFFFFF" d="M188.592,109.877h-0.984v-0.604c-0.282,0.24-0.577,0.428-0.885,0.563s-0.641,0.201-1.001,0.201
				c-0.699,0-1.253-0.264-1.663-0.795c-0.41-0.527-0.615-1.262-0.615-2.199c0-0.488,0.07-0.924,0.211-1.305
				c0.142-0.383,0.332-0.707,0.573-0.977c0.237-0.26,0.515-0.461,0.83-0.598c0.316-0.139,0.645-0.207,0.982-0.207
				c0.308,0,0.58,0.031,0.817,0.096s0.487,0.162,0.749,0.297v-2.496h0.984L188.592,109.877L188.592,109.877z M187.607,108.459
				v-3.305c-0.265-0.117-0.503-0.199-0.712-0.242c-0.209-0.045-0.438-0.066-0.687-0.066c-0.552,0-0.98,0.188-1.288,0.566
				c-0.308,0.377-0.461,0.914-0.461,1.609c0,0.682,0.119,1.203,0.356,1.557c0.237,0.355,0.619,0.535,1.141,0.535
				c0.28,0,0.563-0.061,0.85-0.184C187.093,108.809,187.36,108.652,187.607,108.459z"/>
		</g>
	</g>
	<g>
		<path fill="#FFFFFF" d="M78.533,96.17h-5.332l-0.47-4.113h-7.504l-2.395,4.113h-5.531l12.279-20.154h6.105L78.533,96.17z
			 M72.347,88.441l-0.838-7.193l-4.191,7.193H72.347z"/>
		<path fill="#FFFFFF" d="M95.396,85.613h-0.439c-0.22-0.072-0.531-0.127-0.934-0.162c-0.403-0.037-0.801-0.055-1.194-0.055
			c-0.65,0-1.277,0.049-1.881,0.143c-0.604,0.096-1.226,0.246-1.867,0.453l-2.398,10.18h-4.983l3.581-15.201h4.984l-0.526,2.234
			c0.934-0.676,1.865-1.227,2.795-1.65c0.929-0.426,1.865-0.639,2.808-0.639c0.174,0,0.368,0.006,0.583,0.016
			c0.215,0.008,0.405,0.02,0.57,0.039L95.396,85.613z"/>
		<path fill="#FFFFFF" d="M104.376,96.59c-1.054,0-2.042-0.129-2.963-0.385c-0.921-0.258-1.726-0.658-2.414-1.199
			c-0.669-0.533-1.191-1.201-1.567-2.006c-0.376-0.803-0.563-1.734-0.563-2.789c0-1.365,0.264-2.633,0.791-3.801
			c0.527-1.17,1.267-2.193,2.221-3.068c0.936-0.857,2.077-1.537,3.425-2.039c1.348-0.502,2.805-0.752,4.372-0.752
			c0.944,0,1.882,0.104,2.813,0.311s1.794,0.512,2.592,0.908l-1.045,4.154h-0.702c-0.541-0.641-1.153-1.117-1.835-1.428
			c-0.683-0.311-1.451-0.467-2.303-0.467c-1.559,0-2.811,0.545-3.754,1.635c-0.945,1.088-1.417,2.445-1.417,4.072
			c0,1.131,0.291,1.975,0.874,2.535c0.582,0.561,1.487,0.84,2.716,0.84c0.953,0,1.822-0.191,2.606-0.574
			c0.784-0.383,1.455-0.811,2.014-1.281h0.702l-1.045,4.156c-0.99,0.426-1.859,0.727-2.605,0.906
			C106.538,96.5,105.568,96.59,104.376,96.59z"/>
		<path fill="#FFFFFF" d="M119.602,96.469c-1.714,0-2.938-0.279-3.672-0.832c-0.734-0.557-1.1-1.379-1.1-2.471
			c0-0.289,0.023-0.568,0.069-0.84c0.045-0.27,0.105-0.586,0.179-0.947l1.688-7.201h-2.045l0.758-3.207h2.04l1.018-4.346h4.967
			l-1.014,4.346h4.634l-0.753,3.207h-4.63l-1.292,5.482c-0.093,0.379-0.181,0.76-0.264,1.145c-0.083,0.383-0.125,0.709-0.125,0.98
			c0,0.541,0.153,0.918,0.46,1.129c0.307,0.213,0.781,0.318,1.422,0.318c0.257,0,0.593-0.047,1.01-0.143s0.749-0.201,0.996-0.316
			h0.413l-0.771,3.262c-0.56,0.135-1.148,0.24-1.767,0.316C121.204,96.43,120.463,96.469,119.602,96.469z"/>
		<path fill="#FFFFFF" d="M146.185,80.971l-3.57,15.199h-4.981l0.394-1.678c-0.494,0.316-0.978,0.611-1.45,0.887
			c-0.472,0.275-0.918,0.494-1.339,0.656c-0.532,0.217-1.017,0.363-1.457,0.439s-0.876,0.115-1.306,0.115
			c-1.357,0-2.427-0.32-3.21-0.961c-0.784-0.641-1.175-1.588-1.175-2.842c0-0.344,0.018-0.662,0.055-0.955s0.097-0.615,0.179-0.967
			l2.324-9.895h4.996l-1.771,7.539c-0.137,0.578-0.24,1.074-0.309,1.488c-0.069,0.414-0.103,0.766-0.103,1.057
			c0,0.596,0.146,1.027,0.439,1.293c0.292,0.266,0.848,0.398,1.663,0.398c0.403,0,0.868-0.086,1.396-0.258
			c0.527-0.17,1.097-0.42,1.712-0.744l2.53-10.773H146.185L146.185,80.971z"/>
		<path fill="#FFFFFF" d="M161.674,85.613h-0.439c-0.221-0.072-0.531-0.127-0.935-0.162c-0.401-0.037-0.801-0.055-1.193-0.055
			c-0.65,0-1.277,0.049-1.882,0.143c-0.604,0.096-1.227,0.246-1.867,0.453l-2.398,10.18h-4.983l3.582-15.201h4.983l-0.526,2.234
			c0.934-0.676,1.865-1.227,2.794-1.65c0.93-0.426,1.866-0.639,2.81-0.639c0.173,0,0.368,0.006,0.583,0.016
			c0.216,0.008,0.405,0.02,0.57,0.039L161.674,85.613z"/>
		<path fill="#FFFFFF" d="M181.654,80.971l-3.57,15.199h-4.982l0.395-1.678c-0.495,0.316-0.979,0.611-1.45,0.887
			s-0.919,0.494-1.34,0.656c-0.532,0.217-1.018,0.363-1.457,0.439s-0.875,0.115-1.307,0.115c-1.355,0-2.426-0.32-3.209-0.961
			s-1.174-1.588-1.174-2.842c0-0.344,0.018-0.662,0.054-0.955c0.037-0.293,0.096-0.615,0.179-0.967l2.324-9.895h4.996l-1.771,7.539
			c-0.138,0.578-0.24,1.074-0.31,1.488c-0.068,0.414-0.103,0.766-0.103,1.057c0,0.596,0.147,1.027,0.44,1.293
			s0.847,0.398,1.664,0.398c0.403,0,0.868-0.086,1.395-0.258c0.527-0.17,1.099-0.42,1.712-0.744l2.531-10.773H181.654
			L181.654,80.971z"/>
		<path fill="#FFFFFF" d="M189.399,96.59c-1.32,0-2.6-0.121-3.837-0.365s-2.188-0.527-2.847-0.854l0.95-4.006h0.454
			c0.203,0.172,0.456,0.361,0.765,0.568c0.307,0.207,0.745,0.424,1.314,0.65c0.486,0.207,1.051,0.385,1.693,0.535
			c0.643,0.146,1.335,0.223,2.079,0.223c1.109,0,1.943-0.127,2.498-0.379c0.556-0.254,0.834-0.613,0.834-1.084
			c0-0.361-0.198-0.635-0.593-0.824c-0.394-0.189-1.211-0.424-2.451-0.703c-2.104-0.479-3.543-1.057-4.317-1.734
			c-0.776-0.676-1.164-1.52-1.164-2.531c0-1.715,0.778-3.064,2.337-4.053s3.668-1.482,6.325-1.482c1.155,0,2.31,0.115,3.466,0.346
			c1.155,0.23,2.002,0.477,2.544,0.736l-0.909,3.844h-0.427c-0.651-0.496-1.438-0.898-2.361-1.211
			c-0.922-0.311-1.87-0.467-2.844-0.467c-1.057,0-1.866,0.125-2.431,0.371c-0.565,0.248-0.848,0.631-0.848,1.145
			c0,0.396,0.244,0.701,0.729,0.914c0.487,0.211,1.254,0.43,2.301,0.656c1.946,0.414,3.349,0.938,4.208,1.57
			c0.858,0.631,1.287,1.516,1.287,2.652c0,1.695-0.788,3.033-2.365,4.014C194.217,96.1,192.085,96.59,189.399,96.59z"/>
	</g>
	<g>
		<polygon fill="#FFFFFF" points="82.902,71.602 174.202,53.816 107.094,25 108.008,43.785 123.645,49.762 94.8,53.919 		"/>
	</g>
	<g>
		<g>
			<polygon fill="#FFFFFF" points="56.56,107.691 46,107.691 46,35.092 98.8,35.092 98.8,36.412 47.32,36.412 47.32,106.373 
				56.56,106.373 			"/>
		</g>
		<g>
			<polygon fill="#FFFFFF" points="211,107.691 201.76,107.691 201.76,106.373 209.68,106.373 209.68,36.412 156.88,36.412 
				156.88,35.092 211,35.092 			"/>
		</g>
	</g>
</g>
</svg>
